<?xml version="1.0" encoding="UTF-8" standalone="no"?>
<!-- Created with Inkscape (http://www.inkscape.org/) -->

<svg
   width="319.76099"
   height="45.612354"
   viewBox="0 0 84.603428 12.068269"
   version="1.1"
   id="svg1"
   xml:space="preserve"
   sodipodi:docname="logo.svg"
   inkscape:version="1.3.2 (091e20e, 2023-11-25, custom)"
   xmlns:inkscape="http://www.inkscape.org/namespaces/inkscape"
   xmlns:sodipodi="http://sodipodi.sourceforge.net/DTD/sodipodi-0.dtd"
   xmlns="http://www.w3.org/2000/svg"
   xmlns:svg="http://www.w3.org/2000/svg"><sodipodi:namedview
     id="namedview1"
     pagecolor="#505050"
     bordercolor="#eeeeee"
     borderopacity="1"
     inkscape:showpageshadow="0"
     inkscape:pageopacity="0"
     inkscape:pagecheckerboard="0"
     inkscape:deskcolor="#505050"
     inkscape:zoom="2.8284271"
     inkscape:cx="121.62237"
     inkscape:cy="-5.8336309"
     inkscape:window-width="1920"
     inkscape:window-height="1009"
     inkscape:window-x="-8"
     inkscape:window-y="-8"
     inkscape:window-maximized="1"
     inkscape:current-layer="layer1" /><defs
     id="defs1" /><g
     id="layer1"
     transform="translate(-51.435349,-126.19887)"><g
       id="g1"><path
         d="m 62.679711,131.72296 q 0,0.69836 -0.172628,1.24763 -0.172628,0.54927 -0.470804,0.973 -0.290329,0.41587 -0.674818,0.71405 -0.38449,0.29818 -0.808213,0.4865 -0.415877,0.18832 -0.847447,0.27463 -0.423724,0.0863 -0.800367,0.0863 h -4.613876 v -2.04015 h 4.613876 q 0.392337,-0.0314 0.706206,-0.15694 0.321716,-0.13339 0.549271,-0.3531 0.227555,-0.21971 0.353103,-0.52573 0.125548,-0.31387 0.125548,-0.70621 v -0.92591 q -0.03923,-0.38449 -0.164782,-0.70621 -0.125547,-0.32171 -0.345256,-0.54927 -0.211861,-0.22755 -0.517884,-0.3531 -0.306022,-0.13339 -0.706206,-0.13339 h -4.598183 q -0.40803,0 -0.619891,0.21186 -0.211862,0.21186 -0.211862,0.61204 v 8.38816 h -2.040149 v -8.38816 q 0,-0.78467 0.282482,-1.33394 0.290329,-0.54927 0.714052,-0.88668 0.43157,-0.33741 0.933761,-0.4865 0.502191,-0.15693 0.925914,-0.15693 h 4.613876 q 0.690513,0 1.239784,0.18047 0.549271,0.17263 0.965147,0.4708 0.423724,0.29033 0.714053,0.67482 0.298175,0.38449 0.486497,0.80822 0.196168,0.41587 0.282482,0.84744 0.08631,0.42373 0.08631,0.80037 z"
         id="text10"
         style="font-size:16.0701px;font-family:Audiowide;-inkscape-font-specification:Audiowide;fill:#c4d3ed;fill-opacity:1;fill-rule:evenodd;stroke-width:2.51095;stroke-linecap:square;stroke-miterlimit:1.5;paint-order:stroke fill markers"
         aria-label="P" /><path
         d="m 66.168568,128.04285 h -2.040149 v -1.84398 h 2.040149 z m 0,10.22429 h -2.040149 v -8.48232 h 2.040149 z"
         id="text9"
         style="font-size:16.0701px;font-family:Audiowide;-inkscape-font-specification:Audiowide;fill:#c4d3ed;fill-opacity:1;fill-rule:evenodd;stroke-width:2.51095;stroke-linecap:square;stroke-miterlimit:1.5;paint-order:stroke fill markers"
         aria-label="i" /><path
         d="m 87.662611,132.59395 q 0,0.42372 -0.149088,0.91807 -0.149087,0.4865 -0.486497,0.91022 -0.329562,0.41588 -0.870987,0.69836 -0.533577,0.28248 -1.302557,0.28248 h -3.680116 v -1.93814 h 3.680116 q 0.415877,0 0.643432,-0.2511 0.227555,-0.25894 0.227555,-0.63558 0,-0.40019 -0.258942,-0.62774 -0.251095,-0.22756 -0.612045,-0.22756 h -3.680116 q -0.415876,0 -0.643431,0.25895 -0.227555,0.25109 -0.227555,0.62773 v 2.84837 q 0,0.40803 0.251095,0.63558 0.258942,0.22756 0.635585,0.22756 h 3.664422 v 1.94599 h -3.680116 q -0.423723,0 -0.918067,-0.14909 -0.486497,-0.14909 -0.91022,-0.47865 -0.415877,-0.33741 -0.698359,-0.87099 -0.282482,-0.54142 -0.282482,-1.3104 v -2.86406 q 0,-0.42372 0.149087,-0.91022 0.149088,-0.49434 0.478651,-0.91022 0.337409,-0.42372 0.870987,-0.70621 0.541424,-0.28248 1.310403,-0.28248 h 3.680116 q 0.423724,0 0.910221,0.14909 0.494344,0.14909 0.91022,0.4865 0.423724,0.32956 0.706206,0.87098 0.282482,0.53358 0.282482,1.30256 z"
         id="text8"
         style="font-size:16.0701px;font-family:Audiowide;-inkscape-font-specification:Audiowide;fill:#c4d3ed;fill-opacity:1;fill-rule:evenodd;stroke-width:2.51095;stroke-linecap:square;stroke-miterlimit:1.5;paint-order:stroke fill markers"
         aria-label="e" /><path
         d="m 92.885596,138.26714 h -0.91022 q -0.439417,0 -0.941608,-0.14909 -0.494344,-0.14909 -0.925914,-0.4865 -0.43157,-0.34526 -0.714052,-0.88668 -0.282483,-0.54927 -0.282483,-1.34179 v -9.20421 h 2.04015 v 9.20421 q 0,0.37664 0.235402,0.6042 0.235402,0.21971 0.588505,0.21971 h 0.91022 z"
         id="text7"
         style="font-size:16.0701px;font-family:Audiowide;-inkscape-font-specification:Audiowide;fill:#c4d3ed;fill-opacity:1;fill-rule:evenodd;stroke-width:2.51095;stroke-linecap:square;stroke-miterlimit:1.5;paint-order:stroke fill markers"
         aria-label="l" /><path
         d="m 103.64053,133.66895 h -6.450016 v -2.05584 h 6.450016 z m 0.91022,-4.61387 h -8.176296 v 9.21206 h -2.040149 v -10.22429 q 0,-0.21186 0.07847,-0.40019 0.07847,-0.18832 0.211862,-0.32956 0.141241,-0.14124 0.329562,-0.21971 0.188322,-0.0785 0.40803,-0.0785 h 9.188521 z"
         id="text6"
         style="font-size:16.0701px;font-family:Audiowide;-inkscape-font-specification:Audiowide;fill:#c4d3ed;fill-opacity:1;fill-rule:evenodd;stroke-width:2.51095;stroke-linecap:square;stroke-miterlimit:1.5;paint-order:stroke fill markers"
         aria-label="F" /><path
         d="m 109.77373,138.26714 h -0.91022 q -0.43942,0 -0.94161,-0.14909 -0.49434,-0.14909 -0.92591,-0.4865 -0.43157,-0.34526 -0.71405,-0.88668 -0.28249,-0.54927 -0.28249,-1.34179 v -9.20421 h 2.04015 v 9.20421 q 0,0.37664 0.2354,0.6042 0.23541,0.21971 0.58851,0.21971 h 0.91022 z"
         id="text5"
         style="font-size:16.0701px;font-family:Audiowide;-inkscape-font-specification:Audiowide;fill:#c4d3ed;fill-opacity:1;fill-rule:evenodd;stroke-width:2.51095;stroke-linecap:square;stroke-miterlimit:1.5;paint-order:stroke fill markers"
         aria-label="l" /><path
         d="m 120.62282,135.40308 q 0,0.52573 -0.13339,0.94945 -0.13339,0.41588 -0.3531,0.7376 -0.21971,0.31387 -0.51004,0.54142 -0.29033,0.21971 -0.61205,0.36095 -0.31386,0.14124 -0.64343,0.21186 -0.32171,0.0628 -0.61204,0.0628 h -3.68012 q -0.42372,0 -0.92591,-0.14909 -0.50219,-0.14909 -0.93376,-0.4865 -0.42373,-0.34526 -0.71405,-0.88668 -0.28249,-0.54927 -0.28249,-1.34179 v -2.76205 q 0,-0.78467 0.28249,-1.3261 0.29032,-0.54927 0.71405,-0.88668 0.43157,-0.34525 0.93376,-0.49434 0.50219,-0.14909 0.92591,-0.14909 h 3.68012 q 0.78467,0 1.33394,0.28248 0.54927,0.28249 0.88668,0.71406 0.33741,0.42372 0.4865,0.92591 0.15693,0.50219 0.15693,0.93376 z m -2.04015,-2.74636 q 0,-0.42372 -0.21186,-0.62773 -0.21186,-0.20402 -0.61204,-0.20402 h -3.66442 q -0.40803,0 -0.6199,0.21186 -0.21186,0.20402 -0.21186,0.6042 v 2.76205 q 0,0.40018 0.21186,0.61204 0.21187,0.21187 0.6199,0.21187 h 3.66442 q 0.41587,0 0.61989,-0.21187 0.20401,-0.21186 0.20401,-0.61204 z"
         id="text4"
         style="font-size:16.0701px;font-family:Audiowide;-inkscape-font-specification:Audiowide;fill:#c4d3ed;fill-opacity:1;fill-rule:evenodd;stroke-width:2.51095;stroke-linecap:square;stroke-miterlimit:1.5;paint-order:stroke fill markers"
         aria-label="o" /><path
         d="m 136.03878,129.78482 q -0.4865,1.0907 -1.05146,2.15001 -0.56496,1.05146 -1.18486,1.99306 -0.61204,0.94161 -1.25547,1.74198 -0.64343,0.79252 -1.27902,1.37318 -0.62774,0.57281 -1.23194,0.90237 -0.59635,0.32172 -1.12992,0.32172 -0.21971,0 -0.40803,-0.0785 -0.18833,-0.0785 -0.32957,-0.21186 -0.14124,-0.14124 -0.21971,-0.32957 -0.0785,-0.18832 -0.0785,-0.40803 v -3.80566 l -4.04891,4.52756 q -0.15694,0.15694 -0.34526,0.23541 -0.18048,0.0706 -0.37664,0.0706 -0.21187,0 -0.40019,-0.0785 -0.18047,-0.0785 -0.32171,-0.21186 -0.14124,-0.14124 -0.22756,-0.32957 -0.0785,-0.18832 -0.0785,-0.40803 v -7.45439 h 2.04015 v 4.83359 l 4.06461,-4.54326 q 0.21971,-0.21971 0.51788,-0.27463 0.30603,-0.0628 0.59636,0.0628 0.29032,0.1177 0.45511,0.37664 0.17262,0.2511 0.17262,0.55712 v 4.84928 q 0.65913,-0.63559 1.19271,-1.34179 0.53357,-0.70621 0.98868,-1.45165 0.46296,-0.75328 0.86314,-1.52226 0.40803,-0.77683 0.79252,-1.54581 z"
         id="text3"
         style="font-size:16.0701px;font-family:Audiowide;-inkscape-font-specification:Audiowide;fill:#c4d3ed;fill-opacity:1;fill-rule:evenodd;stroke-width:2.51095;stroke-linecap:square;stroke-miterlimit:1.5;paint-order:stroke fill markers"
         aria-label="w" /></g><g
       id="Layer"
       transform="matrix(0.00521958,0,0,0.00476992,67.568783,129.59035)"
       inkscape:label="icon">
	<path
   fill="#333333"
   d="m 1700.934,402.736 c 0.021,-0.026 0.047,-0.043 0.068,-0.065 0.044,-0.043 0.083,-0.091 0.127,-0.134 l 5.504,-5.505 -0.138,-0.139 c 81.836,-87.814 80.038,-225.814 -5.507,-311.356 -42.353,-42.357 -98.664,-65.685 -158.565,-65.685 -57.228,0 -111.154,21.339 -152.792,60.18 l -0.134,-0.134 -5.511,5.507 c -0.043,0.046 -0.09,0.085 -0.134,0.131 -0.021,0.021 -0.039,0.045 -0.061,0.069 L 66.371,1403.02 l 0.513,0.513 c -7.364,4.749 -12.699,12.548 -13.98,21.907 L 9.578,1741.903 c -1.319,9.647 1.95,19.347 8.831,26.232 5.875,5.87 13.807,9.108 22.004,9.108 1.402,0 2.813,-0.095 4.224,-0.286 l 316.451,-43.338 c 9.365,-1.276 17.163,-6.617 21.912,-13.98 l 0.512,0.513 z M 1542.423,82.094 c 43.272,0 83.954,16.852 114.551,47.452 55.643,55.638 62.276,142.02 19.897,204.983 L 1451.973,109.64 c 26.509,-17.916 57.744,-27.546 90.45,-27.546 z m -152.926,85.825 229.113,229.112 -1235.098,1235.098 -86.195,-86.19 991.423,-991.409 -59.351,-59.342 -991.41,991.418 -83.585,-83.586 z M 76.804,1709.731 l 35.68,-260.604 224.915,224.916 z"
   id="path2"
   style="fill:#c4d3ed;fill-opacity:1" /><path
   fill="#333333"
   d="M 506.941,804.479 563.73,747.69 109.284,293.24 294.716,107.803 l 87.924,87.932 -63.792,63.783 50.362,50.359 63.792,-63.779 51.262,51.258 -63.792,63.788 50.363,50.354 63.797,-63.779 51.257,51.267 -94.375,94.353 50.376,50.363 94.362,-94.362 62.502,62.498 -181.80592,190.33996 45.61076,46.88718 L 749.117,562.201 749.16,562.248 805.949,505.459 323.106,22.622 c -15.682,-15.686 -41.102,-15.686 -56.784,0 L 24.102,264.845 c -15.687,15.683 -15.687,41.107 0,56.789 z"
   id="path3"
   style="fill:#c4d3ed;fill-opacity:1"
   sodipodi:nodetypes="ccccccccccccccccccccccccccc" /><path
   fill="#333333"
   d="m 1541.606,1540.146 0.01,-0.01 c 35.598,-35.594 35.598,-93.52 0,-129.121 -17.24,-17.236 -40.178,-26.745 -64.569,-26.745 -24.378,0 -47.314,9.509 -64.564,26.763 -35.588,35.584 -35.588,93.51 0.01,129.104 35.605,35.591 93.523,35.591 129.115,0.01 z m -100.721,-28.403 c -9.656,-9.655 -14.975,-22.498 -14.975,-36.165 0,-13.659 5.318,-26.511 14.975,-36.167 9.665,-9.655 22.512,-14.979 36.175,-14.979 13.659,0 26.497,5.323 36.161,14.979 19.938,19.945 19.938,52.387 -0.01,72.332 -19.942,19.946 -52.382,19.938 -72.328,0 z"
   id="path1"
   style="fill:#c4d3ed;fill-opacity:1"
   transform="translate(1.8939019e-5)" /><path
   fill="#333333"
   d="m 1778.944,1478.287 c -0.726,-0.729 -1.478,-1.424 -2.241,-2.085 l -505.282,-505.273 -242.4482,242.4741 55.8595,57.6143 180.0597,-193.0394 428.79,428.782 -185.441,185.432 -479.045,-479.041 -56.789,56.798 507.437,507.427 c 15.682,15.69 41.102,15.69 56.788,0 l 242.234,-242.213 c 0.021,-0.034 0.048,-0.052 0.079,-0.086 15.685,-15.675 15.685,-41.108 -10e-4,-56.79 z"
   id="path4"
   style="fill:#c4d3ed;fill-opacity:1;stroke:none;stroke-width:1.00749;stroke-dasharray:none;stroke-opacity:1"
   sodipodi:nodetypes="ccccccccccccccc" />
<path
   d="M 112.45975,1449.1404 76.817961,1709.6937 337.39903,1674.0504 Z"
   style="fill:#00c3ad"
   id="path56" /><path
   d="M 1389.5248,167.93343 154.43785,1402.9884 l 83.56019,83.637 991.43576,-991.40241 59.3039,59.26097 -991.43568,991.40244 86.23332,86.2372 L 1618.6223,397.06862 Z"
   style="fill:#00c3ad"
   id="path55" /><path
   d="m 1542.3884,82.129608 c -32.7059,0 -63.8825,9.601909 -90.3915,27.517892 l 224.8403,224.91001 c 42.3789,-62.96294 35.7429,-149.33785 -19.9,-204.97579 -30.597,-30.59997 -71.2768,-47.452112 -114.5488,-47.452112 z"
   style="fill:#00c3ad"
   id="path54" /><path
   d="m 1477.0452,1424.4393 c -13.663,0 -26.4719,5.2957 -36.1368,14.9507 -9.657,9.656 -14.9498,22.526 -14.9498,36.185 0,13.6669 5.2938,26.5299 14.9498,36.1849 19.9459,19.938 52.3316,19.946 72.2736,0 19.948,-19.945 19.938,-52.4249 0,-72.3699 -9.664,-9.656 -22.4778,-14.9507 -36.1368,-14.9507 z"
   style="fill:#00c3ad;stroke-width:1.00749"
   id="path60" /><path
   d="m 1085.8766,1269.8408 422.3551,422.3021 185.4363,-185.3666 -428.7905,-428.8024 z m 391.1686,114.4051 c 24.3909,0 47.3112,9.5235 64.5512,26.7595 35.598,35.601 35.598,93.5451 0,129.1391 -35.592,35.581 -93.4975,35.591 -129.1025,0 -35.5979,-35.594 -35.5879,-93.5551 0,-129.1391 17.25,-17.254 40.1733,-26.7595 64.5513,-26.7595 z"
   style="fill:#00c3ad;stroke-width:1.00749"
   id="path59" /><path
   d="m 517.58806,701.49884 181.17908,-189.70011 -62.47213,-62.51112 -94.45073,94.36254 -50.29453,-50.26891 94.35174,-94.36253 -51.28458,-51.35229 -63.75919,63.81118 -50.39353,-50.37724 63.7592,-63.70284 -51.18557,-51.35228 -63.8582,63.81117 -50.29452,-50.37724 63.75919,-63.70284 -87.9164,-87.97058 -185.4363,185.47492 z"
   style="fill:#00c3ad"
   id="path62" /></g></g></svg>
